<?xml version="1.0" standalone="no"?>
<svg xmlns="http://www.w3.org/2000/svg" viewBox="0 0 144.441 50.84" width="144.441" height="50.84"><rect fill="#ff708d" width="144.441" height="50.84" x="0" y="0"></rect><path fill="white" fill-rule="nonzero" d="M21.84 0L21.84 0Q22.68 0 23 1.20L23 1.20Q22.76 5.24 22.48 6.94Q22.20 8.64 22.02 9.92Q21.84 11.20 21.78 11.68Q21.72 12.16 21.44 13.64Q21.16 15.12 20.86 16.58Q20.56 18.04 20.50 18.32Q20.44 18.60 19.76 21.90Q19.08 25.20 18.74 25.94Q18.40 26.68 17.58 26.68Q16.76 26.68 16.28 26.20L16.28 26.20Q14.44 23.68 12.80 19.96L12.80 19.96Q12.40 19 11.90 17.88Q11.40 16.76 11.16 16.20L11.16 16.20L10.80 15.36Q9.96 16.80 8.48 20.24Q7 23.68 5.88 25.76L5.88 25.76Q5.16 26.68 4.28 26.68L4.28 26.68Q2.44 26.68 1.48 16.88L1.48 16.88Q1.48 16.84 1.42 16.44Q1.36 16.04 1.26 15.04Q1.16 14.04 1.02 12.82Q0.88 11.60 0 2.72L0 2.72Q0 1.92 0.60 1.26Q1.20 0.60 1.92 0.60L1.92 0.60Q2.80 0.60 3.12 1.76L3.12 1.76Q4.20 14.76 5.28 20.96L5.28 20.96Q5.60 20.40 6.92 17.26Q8.24 14.12 9.32 12.26Q10.40 10.40 11.40 10.40L11.40 10.40Q12.08 10.40 12.56 11.12L12.56 11.12Q15.08 18.28 16.88 21.20L16.88 21.20Q16.92 20.76 17.36 18.80L17.36 18.80L17.88 16.24Q17.88 16 17.98 15.56Q18.08 15.12 18.14 14.70Q18.20 14.28 18.28 13.92L18.28 13.92L18.72 11.40Q19.68 5.48 19.92 1.68L19.92 1.68Q20.08 1 20.66 0.50Q21.24 0 21.84 0ZM35.72 0.08L35.72 0.08Q38.52 0.08 40.48 1.88L40.48 1.88Q44.32 5.32 44.32 12.74Q44.32 20.16 40.08 24.40L40.08 24.40Q37.88 26.52 35 26.72L35 26.72Q31.20 26.72 29.08 24.12Q26.96 21.52 26.06 18.30Q25.16 15.08 25.16 12.08L25.16 12.08Q25.16 6.96 27.60 3.64L27.60 3.64Q30.16 0.08 35.72 0.08ZM35.44 3.40L35.44 3.40Q30.08 3.40 28.76 8.48L28.76 8.48Q28.36 9.84 28.36 11.96Q28.36 14.08 29.16 16.88L29.16 16.88Q30.24 20.64 32.36 22.16L32.36 22.16Q33.60 23.12 35.36 23.12Q37.12 23.12 38.52 21.54Q39.92 19.96 40.44 17.52Q40.96 15.08 40.96 12.60L40.96 12.60Q40.96 8.20 39.70 5.80Q38.44 3.40 35.44 3.40ZM57.96 0.08L57.96 0.08Q60.76 0.08 62.72 1.88L62.72 1.88Q66.56 5.32 66.56 12.74Q66.56 20.16 62.32 24.40L62.32 24.40Q60.12 26.52 57.24 26.72L57.24 26.72Q53.44 26.72 51.32 24.12Q49.20 21.52 48.30 18.30Q47.40 15.08 47.40 12.08L47.40 12.08Q47.40 6.96 49.84 3.64L49.84 3.64Q52.40 0.08 57.96 0.08ZM57.68 3.40L57.68 3.40Q52.32 3.40 51 8.48L51 8.48Q50.60 9.84 50.60 11.96Q50.60 14.08 51.40 16.88L51.40 16.88Q52.48 20.64 54.60 22.16L54.60 22.16Q55.84 23.12 57.60 23.12Q59.36 23.12 60.76 21.54Q62.16 19.96 62.68 17.52Q63.20 15.08 63.20 12.60L63.20 12.60Q63.20 8.20 61.94 5.80Q60.68 3.40 57.68 3.40ZM76.36 0.76L76.36 0.76L80.80 0.68Q83.76 0.68 83.76 2.24L83.76 2.24Q83.76 2.80 83.60 3.02Q83.44 3.24 83.36 3.36Q83.28 3.48 83.04 3.56L83.04 3.56Q82.56 3.72 82.24 3.76Q81.92 3.80 81.80 3.80L81.80 3.80Q81.36 3.88 80.32 3.92Q79.28 3.96 77.30 3.96Q75.32 3.96 72.44 3.80L72.44 3.80L72.44 11.16L80.60 11.16Q81.04 11.16 81.42 11.56Q81.80 11.96 81.80 12.44L81.80 12.44Q81.80 14.28 80.24 14.28L80.24 14.28L72.44 14.28L72.60 24.76Q72.60 26.80 71.22 26.80Q69.84 26.80 69.60 24.96L69.60 24.96Q69.48 24.36 69.46 14.78Q69.44 5.20 69.36 3.76L69.36 3.76Q67.88 3.92 67.88 2.08L67.88 2.08Q67.88 1.60 68.28 1.02Q68.68 0.44 68.98 0.40Q69.28 0.36 69.74 0.36Q70.20 0.36 72.00 0.52L72.00 0.52Q74.48 0.76 76.36 0.76ZM92.12 26.68L92.12 26.68L86.04 26.84Q85.96 26.84 85.62 26.84Q85.28 26.84 85.00 26.54Q84.72 26.24 84.72 25.52L84.72 25.52Q85.28 22.44 86.32 20.62Q87.36 18.80 89.22 16.68Q91.08 14.56 91.60 13.92L91.60 13.92Q86.64 13.08 86.64 11.52L86.64 11.52Q86.64 10.68 87.18 10.14Q87.72 9.60 88.08 9.60Q88.44 9.60 90.42 10.14Q92.40 10.68 94.16 10.84L94.16 10.84Q94.28 10.64 95.00 9.72Q95.72 8.80 96.32 8.04L96.32 8.04Q97.80 6.08 98.84 4.16L98.84 4.16Q94.08 3.12 85.80 3.12L85.80 3.12Q84.44 3.12 84.44 1.88L84.44 1.88Q84.44 1.44 85.04 0.86Q85.64 0.28 86.50 0.20Q87.36 0.12 89.48 0.12Q91.60 0.12 95.88 0.68L95.88 0.68Q102.08 1.48 102.44 2.92L102.44 2.92Q102.48 3.04 102.48 3.46Q102.48 3.88 101.80 5.16L101.80 5.16Q100.88 6.96 98.20 10.44L98.20 10.44Q97.84 10.92 97.64 11.16L97.64 11.16Q97.80 11.16 98.38 11.14Q98.96 11.12 99.16 11.14Q99.36 11.16 99.72 11.24L99.72 11.24Q100.52 11.48 100.52 12.54Q100.52 13.60 99.46 13.98Q98.40 14.36 97.70 14.36Q97.00 14.36 96.68 14.36L96.68 14.36L95.24 14.20Q92.64 17.12 91.48 18.56L91.48 18.56Q89.52 21.12 88.68 23.64L88.68 23.64L94.16 23.80Q95.40 23.80 96.96 23.68L96.96 23.68L99.16 23.48Q99.48 23.44 99.82 23.44Q100.16 23.44 100.64 23.48L100.64 23.48Q101.68 23.56 101.92 24.88L101.92 24.88Q102.08 25.88 100.92 26.28L100.92 26.28Q99.64 26.72 98.32 26.74Q97.00 26.76 96.32 26.76L96.32 26.76L93.00 26.68Q92.60 26.68 92.12 26.68ZM110.36 20.20L110.36 17L110.40 14.96Q110.40 13.92 109.74 12.92Q109.08 11.92 106.56 7.12Q104.04 2.32 104.04 1.70Q104.04 1.08 104.56 0.58Q105.08 0.08 105.58 0.08Q106.08 0.08 106.78 1Q107.48 1.92 109.54 5.84Q111.60 9.76 111.92 10.16L111.92 10.16Q115.76 3.36 118.08 0.56L118.08 0.56Q118.64 0.04 118.98 0.04Q119.32 0.04 119.48 0.12L119.48 0.12Q120.44 0.52 120.44 1.18Q120.44 1.84 120.12 2.32L120.12 2.32Q119.80 2.80 118.36 4.84L118.36 4.84Q116.24 7.80 114.70 10.82Q113.16 13.84 113.16 14.52L113.16 14.52L113.16 21.84L113.28 25.04Q113.28 25.92 112.80 26.26Q112.32 26.60 111.62 26.60Q110.92 26.60 110.68 25.84Q110.44 25.08 110.40 23.84Q110.36 22.60 110.36 20.20L110.36 20.20Z" transform="translate(12 12.001) scale(1)"></path></svg>